<svg width="154" height="53" viewBox="0 0 154 53" fill="none" xmlns="http://www.w3.org/2000/svg">
<path d="M63.9025 31.5248C63.0998 31.1031 62.446 30.2797 61.9428 29.0552L61.3993 27.7187H55.1183L53.1822 32.0618H51.9554L58.9205 16.3132H59.9832L65.2722 29.0552C65.8705 30.5347 66.6891 31.3297 67.7282 31.4404V32.0372C67.4447 32.1171 67.0669 32.1555 66.5949 32.1555C65.6029 32.1563 64.7052 31.9458 63.9025 31.5248ZM55.6147 26.6448H60.9516L58.3535 20.4174L55.6147 26.6448Z" fill="url(#paint0_linear_1_13)"/>
<path d="M77.9034 31.5249C77.195 31.0071 76.4554 30.113 75.6846 28.8402L73.3236 24.855H72.3788V32.0618H69.285V19.415C69.285 18.603 69.1748 18.0031 68.9543 17.6137C68.7339 17.2234 68.2938 17.0283 67.6325 17.0283H67.3961V16.3124H73.9127C75.55 16.3124 77.0217 16.6151 78.3291 17.2188C79.635 17.8234 80.2887 18.9848 80.2887 20.7024C80.2887 22.6911 79.014 24.0124 76.4637 24.663L78.9433 28.8394C79.8722 30.4141 80.8474 31.289 81.8721 31.4642V32.061C81.7452 32.124 81.5179 32.1793 81.1872 32.2277C80.8566 32.2761 80.5495 32.2999 80.2659 32.2999C79.3994 32.2999 78.6119 32.041 77.9034 31.5249ZM73.7957 23.9002C74.6767 23.9002 75.4284 23.6344 76.0502 23.1013C76.672 22.569 76.9829 21.7294 76.9829 20.5849C76.9829 19.4549 76.6758 18.6199 76.0616 18.0792C75.4482 17.5384 74.7314 17.2672 73.9127 17.2672C73.4566 17.2672 73.1024 17.2995 72.85 17.3625L72.378 17.4347V23.9002H73.7957Z" fill="url(#paint1_linear_1_13)"/>
<path d="M84.2802 31.7868C83.9807 31.604 83.7686 31.2929 83.6425 30.8566C83.5163 30.4187 83.4532 29.7865 83.4532 28.9585V16.3132H86.5234V28.9592C86.5234 29.7712 86.6336 30.3711 86.854 30.7613C87.0745 31.1515 87.5154 31.3459 88.1759 31.3459H88.4123V32.0626H85.5785C85.0115 32.0618 84.5782 31.9704 84.2802 31.7868Z" fill="url(#paint2_linear_1_13)"/>
<path d="M92.6615 32.1209C91.8428 31.8905 91.1739 31.5563 90.654 31.1177C90.1348 30.6814 89.8748 30.176 89.8748 29.6029V26.8107H90.5361C90.7725 28.433 91.2681 29.6029 92.0237 30.3181C92.7793 31.0348 93.8344 31.3912 95.1882 31.3912C96.1011 31.3912 96.8247 31.193 97.3606 30.7951C97.8958 30.398 98.1634 29.8249 98.1634 29.0783C98.1634 28.4415 97.9665 27.9007 97.5735 27.4552C97.179 27.0097 96.5663 26.525 95.7317 25.9995L92.8272 24.2336C91.7721 23.6137 91.0211 22.9692 90.5726 22.3009C90.1241 21.6326 89.8999 20.8529 89.8999 19.9619C89.8999 18.706 90.3757 17.7112 91.3282 16.9792C92.2807 16.2479 93.5676 15.8815 95.1889 15.8815C96.0707 15.8815 96.9205 15.9975 97.7392 16.2272C98.5579 16.4584 99.2268 16.7925 99.7467 17.2296C100.266 17.6674 100.526 18.1729 100.526 18.7451V21.5374H99.8645C99.597 19.9143 99.1014 18.7451 98.3769 18.03C97.6525 17.3149 96.6765 16.9561 95.4489 16.9561C94.5983 16.9561 93.9256 17.1635 93.43 17.5776C92.9344 17.9916 92.6858 18.5554 92.6858 19.2713C92.6858 19.892 92.8781 20.4051 93.2643 20.8107C93.6497 21.2155 94.2753 21.6733 95.141 22.1826L98.0455 23.924C99.1477 24.5777 99.9383 25.2091 100.419 25.8221C100.898 26.4343 101.139 27.1694 101.139 28.029C101.139 29.4132 100.622 30.4986 99.5917 31.286C98.5609 32.0733 97.1007 32.4666 95.2117 32.4666C94.33 32.4666 93.4801 32.3514 92.6615 32.1209Z" fill="url(#paint3_linear_1_13)"/>
<path d="M104.255 19.415C104.255 18.603 104.145 18.0031 103.924 17.6137C103.704 17.2234 103.264 17.0283 102.603 17.0283H102.366V16.3124H108.859C110.481 16.3124 111.948 16.6343 113.263 17.2788C114.578 17.9225 115.235 19.1991 115.235 21.1087C115.235 22.3485 114.892 23.311 114.208 23.9955C113.523 24.6799 112.755 25.1323 111.906 25.3558C111.055 25.5786 110.276 25.69 109.568 25.69H107.325V32.0618H104.254V19.415H104.255ZM108.742 24.7359C109.67 24.7359 110.434 24.4494 111.032 23.8772C111.631 23.3049 111.93 22.3416 111.93 20.9897C111.93 19.6539 111.635 18.6991 111.045 18.126C110.455 17.5538 109.726 17.2672 108.86 17.2672C108.404 17.2672 108.05 17.2995 107.797 17.3625L107.325 17.4347V24.7359H108.742Z" fill="url(#paint4_linear_1_13)"/>
<path d="M126.262 31.5248C125.459 31.1031 124.805 30.2797 124.302 29.0552L123.759 27.7187H117.478L115.542 32.0618H114.314L121.279 16.3132H122.342L127.631 29.0552C128.228 30.5347 129.048 31.3297 130.086 31.4404V32.0372C129.803 32.1171 129.425 32.1555 128.953 32.1555C127.962 32.1563 127.065 31.9458 126.262 31.5248ZM117.974 26.6448H123.311L120.714 20.4174L117.974 26.6448Z" fill="url(#paint5_linear_1_13)"/>
<path d="M134.385 25.7622L130.205 19.415C129.733 18.7313 129.217 18.1345 128.659 17.6252C128.1 17.1159 127.569 16.8378 127.065 16.7902V16.3132H129.638C130.441 16.3132 131.169 16.5674 131.823 17.0767C132.476 17.5852 133.031 18.2067 133.488 18.9372L136.699 23.8295L141.28 16.3132H142.815L137.454 25.1185V32.0618H134.384L134.385 25.7622Z" fill="url(#paint6_linear_1_13)"/>
<path d="M16.7694 30.2489L17.1138 29.2888L30.7879 17.6982V7.72374L16.7694 19.6108V28.9469V30.2489Z" fill="url(#paint7_linear_1_13)"/>
<path d="M46.0446 30.2489L45.7002 29.2888L32.0261 17.6982V7.72374L46.0446 19.6108V28.9469V30.2489Z" fill="url(#paint8_linear_1_13)"/>
<path d="M22.9478 28.029H20.4774L30.0376 20.3214H32.6692L42.2834 28.029H39.705L32.1584 22.2517C32.1584 22.2517 31.5951 21.2293 30.5477 22.2517L23.2154 28.029" fill="url(#paint9_linear_1_13)"/>
<path d="M30.7879 41.6406L17.3334 31.064L16.7694 30.2489L17.5972 30.9011H30.7879V41.6406Z" fill="url(#paint10_linear_1_13)"/>
<path d="M32.0261 41.6406L45.4813 31.064L46.0446 30.2489L45.2168 30.9011H32.0261V41.6406Z" fill="url(#paint11_linear_1_13)"/>
<defs>
<linearGradient id="paint0_linear_1_13" x1="55.4084" y1="23.9232" x2="68.6525" y2="30.0347" gradientUnits="userSpaceOnUse">
<stop stop-color="#DB79E8"/>
<stop offset="1" stop-color="#74A3FE"/>
</linearGradient>
<linearGradient id="paint1_linear_1_13" x1="65.3856" y1="20.6721" x2="83.3101" y2="28.9433" gradientUnits="userSpaceOnUse">
<stop stop-color="#DB79E8"/>
<stop offset="1" stop-color="#74A3FE"/>
</linearGradient>
<linearGradient id="paint2_linear_1_13" x1="80.867" y1="21.9178" x2="90.9468" y2="26.569" gradientUnits="userSpaceOnUse">
<stop stop-color="#DB79E8"/>
<stop offset="1" stop-color="#74A3FE"/>
</linearGradient>
<linearGradient id="paint3_linear_1_13" x1="88.9027" y1="21.2078" x2="101.971" y2="27.2381" gradientUnits="userSpaceOnUse">
<stop stop-color="#DB79E8"/>
<stop offset="1" stop-color="#74A3FE"/>
</linearGradient>
<linearGradient id="paint4_linear_1_13" x1="100.34" y1="20.7029" x2="113.206" y2="26.6396" gradientUnits="userSpaceOnUse">
<stop stop-color="#DB79E8"/>
<stop offset="1" stop-color="#74A3FE"/>
</linearGradient>
<linearGradient id="paint5_linear_1_13" x1="117.768" y1="23.924" x2="131.012" y2="30.0352" gradientUnits="userSpaceOnUse">
<stop stop-color="#DB79E8"/>
<stop offset="1" stop-color="#74A3FE"/>
</linearGradient>
<linearGradient id="paint6_linear_1_13" x1="126.14" y1="18.3167" x2="140.697" y2="25.0339" gradientUnits="userSpaceOnUse">
<stop stop-color="#DB79E8"/>
<stop offset="1" stop-color="#74A3FE"/>
</linearGradient>
<linearGradient id="paint7_linear_1_13" x1="17.0582" y1="30.418" x2="30.423" y2="7.51111" gradientUnits="userSpaceOnUse">
<stop offset="0.1989" stop-color="#DB79E8"/>
<stop offset="0.3518" stop-color="#CD7FEB"/>
<stop offset="0.6388" stop-color="#A98DF3"/>
<stop offset="1" stop-color="#74A3FE"/>
</linearGradient>
<linearGradient id="paint8_linear_1_13" x1="35.9614" y1="24.3666" x2="42.2062" y2="13.6632" gradientUnits="userSpaceOnUse">
<stop offset="0.1989" stop-color="#DB79E8"/>
<stop offset="0.3518" stop-color="#CD7FEB"/>
<stop offset="0.6388" stop-color="#A98DF3"/>
<stop offset="1" stop-color="#74A3FE"/>
</linearGradient>
<linearGradient id="paint9_linear_1_13" x1="20.4774" y1="24.175" x2="42.2838" y2="24.175" gradientUnits="userSpaceOnUse">
<stop offset="0.1989" stop-color="#DB79E8"/>
<stop offset="0.3518" stop-color="#CD7FEB"/>
<stop offset="0.6388" stop-color="#A98DF3"/>
<stop offset="1" stop-color="#74A3FE"/>
</linearGradient>
<linearGradient id="paint10_linear_1_13" x1="23.0907" y1="37.1502" x2="27.7655" y2="29.1377" gradientUnits="userSpaceOnUse">
<stop offset="0.3333" stop-color="#DB79E8"/>
<stop offset="0.4606" stop-color="#CD7FEB"/>
<stop offset="0.6994" stop-color="#A98DF3"/>
<stop offset="1" stop-color="#74A3FE"/>
</linearGradient>
<linearGradient id="paint11_linear_1_13" x1="32.5419" y1="41.9418" x2="41.0601" y2="27.3417" gradientUnits="userSpaceOnUse">
<stop offset="0.3333" stop-color="#DB79E8"/>
<stop offset="0.4606" stop-color="#CD7FEB"/>
<stop offset="0.6994" stop-color="#A98DF3"/>
<stop offset="1" stop-color="#74A3FE"/>
</linearGradient>
</defs>
</svg>
